<svg viewBox="0 0 31 30" xmlns="http://www.w3.org/2000/svg"><path fill-rule="evenodd" clip-rule="evenodd" d="M15.421 29.684c8.197 0 14.842-6.645 14.842-14.842C30.263 6.645 23.618 0 15.421 0 7.224 0 .58 6.645.58 14.842c0 8.197 6.645 14.842 14.842 14.842Zm0-23.498c-2.351 0-2.646.009-3.569.051-.921.043-1.551.19-2.102.403-.577.217-1.1.558-1.533.998-.44.433-.781.956-1 1.534-.212.55-.36 1.18-.401 2.103-.042.922-.052 1.217-.052 3.568 0 2.352.01 2.646.052 3.57.042.921.189 1.551.402 2.102.217.578.558 1.101.999 1.533.432.44.956.781 1.534.998.55.215 1.18.362 2.101.403.923.042 1.218.052 3.57.052 2.351 0 2.646-.01 3.57-.052.92-.042 1.55-.189 2.101-.403a4.246 4.246 0 0 0 1.534-.998c.44-.432.78-.956.998-1.534.214-.55.36-1.18.402-2.101.042-.923.052-1.218.052-3.57 0-2.35-.009-2.645-.052-3.57-.042-.92-.188-1.55-.402-2.101a4.228 4.228 0 0 0-.998-1.533 4.26 4.26 0 0 0-1.534-1c-.55-.213-1.18-.36-2.103-.402-.922-.041-1.217-.051-3.568-.051Zm0 1.56c2.312 0 2.586.008 3.5.05.844.038 1.302.18 1.607.298.376.139.716.36.996.647.303.303.49.592.647.996.119.305.26.763.298 1.608.042.913.05 1.187.05 3.498 0 2.312-.008 2.586-.05 3.499-.039.845-.18 1.303-.298 1.608-.139.376-.36.716-.647.996a2.69 2.69 0 0 1-.996.647c-.305.119-.763.26-1.608.298-.913.042-1.186.05-3.498.05-2.313 0-2.586-.008-3.499-.05-.845-.039-1.303-.18-1.608-.298a2.688 2.688 0 0 1-.996-.647 2.687 2.687 0 0 1-.647-.996c-.119-.305-.26-.763-.298-1.608-.042-.913-.05-1.187-.05-3.499 0-2.311.008-2.585.05-3.498.039-.845.18-1.303.298-1.608.139-.376.36-.716.647-.996.303-.303.592-.49.996-.647.305-.119.764-.26 1.608-.298.913-.042 1.187-.05 3.499-.05Zm.84 9.865a2.888 2.888 0 0 1-2.98-.828 2.887 2.887 0 0 1 3.114-4.659 2.887 2.887 0 0 1-.133 5.486Zm-2.542-6.879a4.452 4.452 0 0 0-1.444 7.258 4.45 4.45 0 1 0 1.444-7.258Zm7.38-.018a1.053 1.053 0 1 1-1.926-.848 1.053 1.053 0 0 1 1.927.848Z"/></svg>