<?xml version="1.0" encoding="utf-8"?><svg viewBox="0 0 31 30" xmlns="http://www.w3.org/2000/svg" xmlns:xlink="http://www.w3.org/1999/xlink"><style>:root>svg{display:none}:root>svg:target{display:block}</style><svg viewBox="0 0 31 16" id="Arrow10" xmlns="http://www.w3.org/2000/svg"><path d="M.896 7.1a1 1 0 000 1.414l6.364 6.364a1 1 0 001.414-1.414L3.017 7.807 8.674 2.15A1 1 0 007.26.736L.896 7.1zm29.707-.293h-29v2h29v-2z"/></svg><svg viewBox="0 0 30 30" id="facebook" xmlns="http://www.w3.org/2000/svg"><path fill-rule="evenodd" clip-rule="evenodd" d="M.158 14.925c0 7.379 5.36 13.515 12.369 14.76v-10.72h-3.71v-4.123h3.71v-3.299c0-3.71 2.39-5.77 5.772-5.77 1.071 0 2.226.164 3.297.328v3.794H19.7c-1.814 0-2.226.906-2.226 2.062v2.885h3.958l-.66 4.123h-3.298v10.72c7.01-1.245 12.368-7.38 12.368-14.76C29.842 6.716 23.164 0 15 0 6.837 0 .158 6.716.158 14.925z"/></svg><svg viewBox="0 0 31 30" id="instagram" xmlns="http://www.w3.org/2000/svg"><path fill-rule="evenodd" clip-rule="evenodd" d="M15.421 29.684c8.197 0 14.842-6.645 14.842-14.842C30.263 6.645 23.618 0 15.421 0 7.224 0 .58 6.645.58 14.842c0 8.197 6.645 14.842 14.842 14.842zm0-23.498c-2.351 0-2.646.009-3.569.051-.921.043-1.551.19-2.102.403-.577.217-1.1.558-1.533.998-.44.433-.781.956-1 1.534-.212.55-.36 1.18-.401 2.103-.042.922-.052 1.217-.052 3.568 0 2.352.01 2.646.052 3.57.042.921.189 1.551.402 2.102.217.578.558 1.101.999 1.533.432.44.956.781 1.534.998.55.215 1.18.362 2.101.403.923.042 1.218.052 3.57.052 2.351 0 2.646-.01 3.57-.052.92-.042 1.55-.189 2.101-.403a4.246 4.246 0 001.534-.998c.44-.432.78-.956.998-1.534.214-.55.36-1.18.402-2.101.042-.923.052-1.218.052-3.57 0-2.35-.009-2.645-.052-3.57-.042-.92-.188-1.55-.402-2.101a4.228 4.228 0 00-.998-1.533 4.26 4.26 0 00-1.534-1c-.55-.213-1.18-.36-2.103-.402-.922-.041-1.217-.051-3.568-.051zm0 1.56c2.312 0 2.586.008 3.5.05.844.038 1.302.18 1.607.298.376.139.716.36.996.647.303.303.49.592.647.996.119.305.26.763.298 1.608.042.913.05 1.187.05 3.498 0 2.312-.008 2.586-.05 3.499-.039.845-.18 1.303-.298 1.608-.139.376-.36.716-.647.996a2.69 2.69 0 01-.996.647c-.305.119-.763.26-1.608.298-.913.042-1.186.05-3.498.05-2.313 0-2.586-.008-3.499-.05-.845-.039-1.303-.18-1.608-.298a2.688 2.688 0 01-.996-.647 2.687 2.687 0 01-.647-.996c-.119-.305-.26-.763-.298-1.608-.042-.913-.05-1.187-.05-3.499 0-2.311.008-2.585.05-3.498.039-.845.18-1.303.298-1.608.139-.376.36-.716.647-.996.303-.303.592-.49.996-.647.305-.119.764-.26 1.608-.298.913-.042 1.187-.05 3.499-.05zm.84 9.865a2.888 2.888 0 01-2.98-.828 2.887 2.887 0 013.114-4.659 2.887 2.887 0 01-.133 5.486zm-2.542-6.879a4.452 4.452 0 00-1.444 7.258 4.45 4.45 0 101.444-7.258zm7.38-.018a1.053 1.053 0 11-1.926-.848 1.053 1.053 0 011.927.848z"/></svg><svg viewBox="0 0 15 20" id="mapcord" xmlns="http://www.w3.org/2000/svg"><path d="M15 7.059C15 3.165 11.637 0 7.5 0 3.362 0 0 3.165 0 7.059 0 12.353 7.5 20 7.5 20S15 12.353 15 7.059zm-10 0c0-1.294 1.125-2.353 2.5-2.353S10 5.765 10 7.059c0 .624-.263 1.222-.732 1.664a2.581 2.581 0 01-1.768.689 2.581 2.581 0 01-1.768-.69A2.285 2.285 0 015 7.06z"/></svg><svg viewBox="0 0 30 30" id="telegram" xmlns="http://www.w3.org/2000/svg"><path fill-rule="evenodd" clip-rule="evenodd" d="M29.684 14.842c0 8.197-6.645 14.842-14.842 14.842C6.646 29.684 0 23.04 0 14.842 0 6.646 6.646 0 14.842 0c8.197 0 14.842 6.646 14.842 14.842zm-14.31-3.885c-1.443.6-4.329 1.843-8.655 3.728-.703.28-1.072.553-1.105.82-.057.453.51.63 1.279.872.105.033.214.067.325.104.758.246 1.778.534 2.307.545.481.01 1.018-.188 1.61-.593 4.042-2.73 6.129-4.11 6.26-4.139.093-.02.221-.048.308.03.087.077.078.223.07.262-.058.239-2.277 2.303-3.427 3.372a33.34 33.34 0 00-.664.623c-.116.12-.235.235-.349.345-.705.678-1.232 1.188.03 2.019.606.4 1.09.73 1.574 1.058.529.36 1.055.719 1.738 1.167.173.114.339.231.501.346.615.44 1.168.833 1.85.77.396-.037.807-.409 1.015-1.52.49-2.63 1.458-8.325 1.682-10.672a2.61 2.61 0 00-.025-.584.626.626 0 00-.213-.402c-.177-.145-.451-.176-.575-.173-.558.01-1.414.308-5.536 2.022z"/></svg><svg viewBox="0 0 30 30" id="vk" xmlns="http://www.w3.org/2000/svg"><path d="M15.159 0C6.96 0 .316 6.645.316 14.842c0 8.197 6.645 14.842 14.842 14.842 8.198 0 14.843-6.645 14.843-14.842C30 6.645 23.356 0 15.158 0zm5.707 16.745s1.313 1.296 1.636 1.897c.01.013.014.025.017.031.132.221.163.393.098.521-.109.214-.48.319-.606.328h-2.32c-.16 0-.497-.042-.905-.323-.314-.22-.623-.58-.925-.93-.45-.523-.84-.975-1.232-.975-.05 0-.1.008-.147.023-.297.096-.677.52-.677 1.648 0 .353-.278.555-.475.555h-1.062c-.362 0-2.246-.126-3.916-1.887-2.044-2.157-3.884-6.483-3.9-6.523-.115-.28.124-.43.386-.43H9.18c.312 0 .414.19.485.359.084.196.39.977.893 1.855.814 1.432 1.314 2.013 1.714 2.013a.45.45 0 00.215-.056c.522-.29.425-2.153.402-2.54 0-.072-.002-.833-.27-1.198-.19-.264-.517-.365-.715-.402a.85.85 0 01.308-.261c.358-.18 1.005-.206 1.646-.206h.357c.696.01.876.054 1.127.118.51.122.521.451.477 1.578-.014.32-.028.682-.028 1.109 0 .092-.005.191-.005.296-.015.574-.034 1.225.371 1.492a.335.335 0 00.177.052c.14 0 .564 0 1.711-1.969a15.03 15.03 0 00.92-1.97c.023-.04.091-.163.172-.211a.41.41 0 01.191-.045h2.754c.3 0 .505.045.544.16.068.185-.012.746-1.27 2.448l-.56.74c-1.14 1.494-1.14 1.57.07 2.703z"/></svg><svg viewBox="0 0 31 30" id="youtube" xmlns="http://www.w3.org/2000/svg"><path fill-rule="evenodd" clip-rule="evenodd" d="M15.578 29.684c8.198 0 14.843-6.645 14.843-14.842C30.42 6.645 23.776 0 15.578 0 7.381 0 .736 6.645.736 14.842c0 8.197 6.645 14.842 14.842 14.842zm8.856-20.001c.302.285.52.647.632 1.047a21.92 21.92 0 01.413 4.55c.01 1.52-.13 3.038-.414 4.531a2.294 2.294 0 01-.63 1.048c-.31.294-.69.505-1.104.612a63.347 63.347 0 01-7.755.388s-6.175 0-7.744-.408a2.552 2.552 0 01-1.106-.613 2.331 2.331 0 01-.64-1.046 23.95 23.95 0 01-.402-4.532c-.01-1.52.125-3.037.403-4.53.115-.398.336-.76.641-1.053.31-.297.69-.512 1.104-.627a63.198 63.198 0 017.744-.388s6.206 0 7.755.409c.414.106.794.317 1.103.612zm-10.83 2.754v5.647l5.163-2.823-5.163-2.824z"/></svg></svg>