<svg viewBox="0 0 30 30" xmlns="http://www.w3.org/2000/svg"><path fill-rule="evenodd" clip-rule="evenodd" d="M29.684 14.842c0 8.197-6.645 14.842-14.842 14.842C6.646 29.684 0 23.04 0 14.842 0 6.646 6.646 0 14.842 0c8.197 0 14.842 6.646 14.842 14.842Zm-14.31-3.885c-1.443.6-4.329 1.843-8.655 3.728-.703.28-1.072.553-1.105.82-.057.453.51.63 1.279.872.105.033.214.067.325.104.758.246 1.778.534 2.307.545.481.01 1.018-.188 1.61-.593 4.042-2.73 6.129-4.11 6.26-4.139.093-.02.221-.048.308.03.087.077.078.223.07.262-.058.239-2.277 2.303-3.427 3.372-.359.332-.612.569-.664.623-.116.12-.235.235-.349.345-.705.678-1.232 1.188.03 2.019.606.4 1.09.73 1.574 1.058.529.36 1.055.719 1.738 1.167.173.114.339.231.501.346.615.44 1.168.833 1.85.77.396-.037.807-.409 1.015-1.52.49-2.63 1.458-8.325 1.682-10.672a2.61 2.61 0 0 0-.025-.584.626.626 0 0 0-.213-.402c-.177-.145-.451-.176-.575-.173-.558.01-1.414.308-5.536 2.022Z"/></svg>