<svg viewBox="0 0 30 30" xmlns="http://www.w3.org/2000/svg"><path d="M15.159 0C6.96 0 .316 6.645.316 14.842c0 8.197 6.645 14.842 14.842 14.842 8.198 0 14.843-6.645 14.843-14.842C30 6.645 23.356 0 15.158 0Zm5.707 16.745s1.313 1.296 1.636 1.897c.01.013.014.025.017.031.132.221.163.393.098.521-.109.214-.48.319-.606.328h-2.32c-.16 0-.497-.042-.905-.323-.314-.22-.623-.58-.925-.93-.45-.523-.84-.975-1.232-.975-.05 0-.1.008-.147.023-.297.096-.677.52-.677 1.648 0 .353-.278.555-.475.555h-1.062c-.362 0-2.246-.126-3.916-1.887-2.044-2.157-3.884-6.483-3.9-6.523-.115-.28.124-.43.386-.43H9.18c.312 0 .414.19.485.359.084.196.39.977.893 1.855.814 1.432 1.314 2.013 1.714 2.013.075 0 .149-.02.215-.056.522-.29.425-2.153.402-2.54 0-.072-.002-.833-.27-1.198-.19-.264-.517-.365-.715-.402a.85.85 0 0 1 .308-.261c.358-.18 1.005-.206 1.646-.206h.357c.696.01.876.054 1.127.118.51.122.521.451.477 1.578-.014.32-.028.682-.028 1.109 0 .092-.005.191-.005.296-.015.574-.034 1.225.371 1.492.053.034.114.051.177.052.14 0 .564 0 1.711-1.969a15.03 15.03 0 0 0 .92-1.97c.023-.04.091-.163.172-.211a.41.41 0 0 1 .191-.045h2.754c.3 0 .505.045.544.16.068.185-.012.746-1.27 2.448l-.56.74c-1.14 1.494-1.14 1.57.07 2.703Z"/></svg>