<svg viewBox="0 0 31 30" xmlns="http://www.w3.org/2000/svg"><path fill-rule="evenodd" clip-rule="evenodd" d="M15.578 29.684c8.198 0 14.843-6.645 14.843-14.842C30.42 6.645 23.776 0 15.578 0 7.381 0 .736 6.645.736 14.842c0 8.197 6.645 14.842 14.842 14.842Zm8.856-20.001c.302.285.52.647.632 1.047a21.92 21.92 0 0 1 .413 4.55c.01 1.52-.13 3.038-.414 4.531a2.294 2.294 0 0 1-.63 1.048c-.31.294-.69.505-1.104.612a63.347 63.347 0 0 1-7.755.388s-6.175 0-7.744-.408a2.552 2.552 0 0 1-1.106-.613 2.331 2.331 0 0 1-.64-1.046 23.95 23.95 0 0 1-.402-4.532c-.01-1.52.125-3.037.403-4.53.115-.398.336-.76.641-1.053.31-.297.69-.512 1.104-.627a63.198 63.198 0 0 1 7.744-.388s6.206 0 7.755.409c.414.106.794.317 1.103.612Zm-10.83 2.754v5.647l5.163-2.823-5.163-2.824Z"/></svg>