<svg viewBox="0 0 31 30" xmlns="http://www.w3.org/2000/svg">
<path fill-rule="evenodd" clip-rule="evenodd" d="M15.4212 29.6842C23.6183 29.6842 30.2633 23.0392 30.2633 14.8421C30.2633 6.64504 23.6183 0 15.4212 0C7.22414 0 0.579102 6.64504 0.579102 14.8421C0.579102 23.0392 7.22414 29.6842 15.4212 29.6842ZM15.4216 6.18555C13.0698 6.18555 12.7754 6.19499 11.8522 6.23749H11.8514C10.9305 6.28 10.3008 6.42639 9.74986 6.63969C9.17251 6.85728 8.64955 7.19813 8.21741 7.6385C7.77674 8.07085 7.43562 8.59408 7.21782 9.17173C7.00452 9.72269 6.85733 10.3524 6.81562 11.2748C6.7739 12.1973 6.76367 12.4916 6.76367 14.8434C6.76367 17.1945 6.77312 17.4888 6.81562 18.4136C6.85812 19.3345 7.00452 19.9642 7.21782 20.5152C7.4353 21.0928 7.77616 21.616 8.21662 22.0484C8.64938 22.4886 9.17287 22.8291 9.75065 23.0464C10.3016 23.2605 10.9313 23.4077 11.8522 23.4494C12.7754 23.4911 13.0698 23.5013 15.4216 23.5013C17.7734 23.5013 18.0677 23.4919 18.9918 23.4494C19.9127 23.4069 20.5423 23.2605 21.0933 23.0464C21.6702 22.8292 22.1936 22.4891 22.6265 22.0484C23.0667 21.6156 23.4073 21.0922 23.6245 20.5144C23.8386 19.9634 23.9858 19.3337 24.0275 18.4129C24.0692 17.4896 24.0795 17.1952 24.0795 14.8434C24.0795 12.4924 24.07 12.1981 24.0275 11.2732C23.985 10.3524 23.8386 9.72269 23.6245 9.17173C23.4073 8.59402 23.0673 8.07139 22.6265 7.63929C22.1936 7.19852 21.6702 6.85771 21.0933 6.63969C20.5423 6.42639 19.9127 6.27921 18.9902 6.23749C18.0677 6.19578 17.7734 6.18555 15.4216 6.18555ZM15.4216 7.74554C17.7332 7.74554 18.0071 7.7542 18.9201 7.79592C19.7647 7.83448 20.2228 7.97537 20.5282 8.09422C20.9041 8.23291 21.2443 8.45397 21.5238 8.7412C21.8268 9.04423 22.0134 9.33309 22.1708 9.73686C22.2896 10.0422 22.4305 10.5003 22.4691 11.3449C22.5108 12.2579 22.5195 12.5318 22.5195 14.8434C22.5195 17.1551 22.5108 17.429 22.4691 18.342C22.4305 19.1866 22.2896 19.6446 22.1708 19.95C22.0323 20.3255 21.8111 20.6663 21.5238 20.9457C21.2208 21.2487 20.9319 21.4352 20.5282 21.5927C20.2228 21.7115 19.7647 21.8524 18.9201 21.891C18.0071 21.9327 17.734 21.9413 15.4216 21.9413C13.1091 21.9413 12.836 21.9327 11.923 21.891C11.0785 21.8524 10.6204 21.7115 10.315 21.5927C9.93955 21.4541 9.59874 21.233 9.31933 20.9457C9.03204 20.6663 8.81087 20.3255 8.67234 19.95C8.55349 19.6446 8.41261 19.1866 8.37404 18.342C8.33232 17.429 8.32367 17.1551 8.32367 14.8434C8.32367 12.5318 8.33232 12.2579 8.37404 11.3449C8.41261 10.5003 8.55349 10.0422 8.67234 9.73686C8.81101 9.36086 9.03208 9.02065 9.31933 8.7412C9.62235 8.43817 9.91121 8.25164 10.315 8.09422C10.6204 7.97537 11.0785 7.83448 11.923 7.79592C12.836 7.7542 13.1099 7.74554 15.4216 7.74554ZM16.2613 17.6106C15.621 17.8042 14.9333 17.7695 14.3157 17.5124C13.9213 17.3489 13.568 17.0999 13.2813 16.7834C12.9946 16.4669 12.7816 16.0908 12.6578 15.6821C12.5339 15.2734 12.5022 14.8424 12.5649 14.42C12.6276 13.9976 12.7832 13.5943 13.0204 13.2393C13.2577 12.8842 13.5707 12.5862 13.937 12.3666C14.3032 12.147 14.7136 12.0114 15.1386 11.9695C15.5636 11.9276 15.9926 11.9804 16.3947 12.1242C16.7968 12.268 17.162 12.4991 17.464 12.801C17.9379 13.2732 18.2331 13.8953 18.2992 14.561C18.3653 15.2266 18.1983 15.8946 17.8266 16.4509C17.4549 17.0071 16.9017 17.417 16.2613 17.6106ZM13.7186 10.732C13.1786 10.9557 12.6881 11.2835 12.2748 11.6967C11.4402 12.5313 10.9714 13.6632 10.9714 14.8434C10.9714 16.0237 11.4402 17.1556 12.2748 17.9902C13.1094 18.8248 14.2413 19.2936 15.4216 19.2936C16.6018 19.2936 17.7337 18.8248 18.5683 17.9902C18.9816 17.577 19.3094 17.0864 19.533 16.5465C19.7566 16.0065 19.8717 15.4278 19.8717 14.8434C19.8717 14.259 19.7566 13.6804 19.533 13.1404C19.3094 12.6005 18.9816 12.1099 18.5683 11.6967C18.1551 11.2835 17.6645 10.9557 17.1246 10.732C16.5847 10.5084 16.006 10.3933 15.4216 10.3933C14.8372 10.3933 14.2585 10.5084 13.7186 10.732ZM21.0998 10.7144C21.0431 10.8432 20.9611 10.9594 20.8587 11.056C20.6596 11.2439 20.395 11.3467 20.1213 11.3427C19.8475 11.3387 19.5861 11.2282 19.3925 11.0346C19.1989 10.841 19.0884 10.5796 19.0844 10.3059C19.0804 10.0321 19.1833 9.76758 19.3711 9.56842C19.4677 9.46602 19.5839 9.38404 19.7128 9.32734C19.8416 9.27063 19.9805 9.24036 20.1213 9.23831C20.262 9.23625 20.4018 9.26247 20.5322 9.31539C20.6627 9.36831 20.7812 9.44687 20.8807 9.54642C20.9803 9.64596 21.0588 9.76446 21.1118 9.89491C21.1647 10.0254 21.1909 10.1651 21.1888 10.3059C21.1868 10.4466 21.1565 10.5855 21.0998 10.7144Z"/>
</svg>
