<svg viewBox="0 0 30 30" xmlns="http://www.w3.org/2000/svg">
<path fill-rule="evenodd" clip-rule="evenodd" d="M29.6842 14.8421C29.6842 23.0387 23.0387 29.6842 14.8421 29.6842C6.64555 29.6842 0 23.0387 0 14.8421C0 6.64555 6.64555 0 14.8421 0C23.0387 0 29.6842 6.64555 29.6842 14.8421ZM15.3739 10.9572C13.9306 11.5571 11.045 12.8001 6.71853 14.685C6.016 14.9646 5.64742 15.2379 5.61403 15.5051C5.55713 15.9577 6.1236 16.1358 6.89292 16.377C6.99805 16.4104 7.10689 16.4438 7.21821 16.4809C7.97639 16.7271 8.99555 17.0152 9.52492 17.0264C10.0061 17.0363 10.5428 16.8384 11.1353 16.4327C15.1773 13.703 17.2638 12.3239 17.3949 12.2942C17.4877 12.2732 17.6163 12.246 17.7029 12.3239C17.7895 12.4006 17.7808 12.5465 17.7722 12.5861C17.7153 12.8248 15.4964 14.8891 14.3461 15.9577C13.9874 16.2904 13.7339 16.5267 13.6819 16.5811C13.5657 16.7011 13.4469 16.8161 13.3332 16.9262C12.6282 17.604 12.1013 18.1136 13.3628 18.9447C13.9689 19.3442 14.4537 19.6744 14.9373 20.0034C15.4655 20.3634 15.9924 20.722 16.6751 21.1698C16.8483 21.2836 17.014 21.4011 17.176 21.5161C17.7907 21.9552 18.3436 22.3485 19.0263 22.2867C19.4221 22.2495 19.8328 21.8773 20.0406 20.7653C20.5316 18.1358 21.4988 12.4414 21.7227 10.0939C21.7363 9.89896 21.728 9.70314 21.6979 9.51008C21.6799 9.35415 21.604 9.21068 21.4852 9.1081C21.3083 8.96339 21.0337 8.93247 20.9101 8.93495C20.3522 8.94484 19.4963 9.24292 15.3739 10.9572Z"/>
</svg>
