<svg viewBox="0 0 30 30" xmlns="http://www.w3.org/2000/svg">
<path d="M15.1585 0C6.96134 0 0.316406 6.64493 0.316406 14.8421C0.316406 23.0393 6.96134 29.6842 15.1585 29.6842C23.3557 29.6842 30.0006 23.0393 30.0006 14.8421C30.0006 6.64493 23.3557 0 15.1585 0ZM20.8665 16.7453C20.8665 16.7453 22.1791 18.0409 22.5023 18.6423C22.5115 18.6547 22.5162 18.667 22.5193 18.6732C22.6507 18.8943 22.6816 19.0659 22.6167 19.1942C22.5084 19.4076 22.1374 19.5127 22.0106 19.522H19.6915C19.5307 19.522 19.1937 19.4803 18.7855 19.1989C18.4717 18.9793 18.1625 18.6191 17.861 18.2682C17.4111 17.7456 17.0215 17.2941 16.6288 17.2941C16.5789 17.2941 16.5294 17.3019 16.4819 17.3173C16.1851 17.4132 15.8048 17.8368 15.8048 18.9654C15.8048 19.3179 15.5265 19.5205 15.3301 19.5205H14.268C13.9062 19.5205 12.0216 19.3937 10.3518 17.6327C8.30795 15.476 6.46815 11.1501 6.45269 11.1099C6.33673 10.8301 6.57637 10.6801 6.83766 10.6801H9.17992C9.49223 10.6801 9.59427 10.8703 9.66539 11.0388C9.74887 11.2352 10.055 12.0159 10.5575 12.8941C11.3722 14.3257 11.8716 14.907 12.272 14.907C12.3471 14.9062 12.4209 14.8871 12.4869 14.8514C13.0095 14.5607 12.9121 12.6977 12.8889 12.3112C12.8889 12.2386 12.8874 11.4779 12.6199 11.113C12.4282 10.8486 12.102 10.7482 11.9041 10.7111C11.9842 10.6005 12.0897 10.5109 12.2117 10.4498C12.5704 10.2704 13.2167 10.2441 13.8583 10.2441H14.2154C14.9111 10.2534 15.0905 10.2983 15.3425 10.3616C15.8527 10.4838 15.8635 10.8131 15.8187 11.9402C15.8048 12.2602 15.7908 12.622 15.7908 13.0487C15.7908 13.1414 15.7862 13.2404 15.7862 13.3455C15.7707 13.9191 15.7522 14.57 16.1573 14.8375C16.2101 14.8706 16.2712 14.8883 16.3335 14.8885C16.4742 14.8885 16.8978 14.8885 18.045 12.9204C18.3988 12.2869 18.7062 11.6286 18.9649 10.9507C18.9881 10.9105 19.0561 10.7868 19.1365 10.7389C19.1958 10.7086 19.2616 10.6932 19.3282 10.694H22.0817C22.3817 10.694 22.5873 10.7389 22.6259 10.8548C22.694 11.0388 22.6136 11.6 21.3566 13.3022L20.7954 14.0428C19.656 15.5363 19.656 15.612 20.8665 16.7453Z"/>
</svg>
