<svg viewBox="0 0 31 30" xmlns="http://www.w3.org/2000/svg">
<path fill-rule="evenodd" clip-rule="evenodd" d="M15.5784 29.6842C23.7755 29.6842 30.4205 23.0392 30.4205 14.8421C30.4205 6.64504 23.7755 0 15.5784 0C7.38136 0 0.736328 6.64504 0.736328 14.8421C0.736328 23.0392 7.38136 29.6842 15.5784 29.6842ZM24.4344 9.68253C24.7357 9.96818 24.954 10.3302 25.0661 10.73V10.7292C25.3617 12.2274 25.4999 13.7524 25.4785 15.2794C25.4883 16.7999 25.3499 18.3178 25.0653 19.8115C24.9564 20.2057 24.7395 20.5678 24.4344 20.8589C24.1245 21.1534 23.7447 21.364 23.3308 21.4709C20.7564 21.7586 18.1667 21.888 15.5764 21.8586C15.5764 21.8586 9.40133 21.8586 7.8318 21.4511C7.41281 21.3398 7.03177 21.1295 6.72578 20.8383C6.4198 20.5472 6.19958 20.1868 6.08659 19.7917C5.80864 18.2956 5.67421 16.7788 5.6841 15.2604C5.67445 13.7407 5.80921 12.2234 6.08659 10.7292C6.20206 10.3324 6.42309 9.97037 6.72826 9.67676C7.03883 9.38008 7.41792 9.16475 7.8318 9.04993C10.4029 8.76232 12.9893 8.63286 15.5764 8.66229C15.5764 8.66229 21.7819 8.66229 23.3308 9.07055C23.7447 9.17747 24.1245 9.38809 24.4344 9.68253ZM13.6035 12.4373V18.0844L18.7666 15.2613L13.6035 12.4373Z"/>
</svg>
